<?xml version="1.0" encoding="UTF-8" standalone="no"?>
<!DOCTYPE svg PUBLIC "-//W3C//DTD SVG 1.1//EN" "http://www.w3.org/Graphics/SVG/1.1/DTD/svg11.dtd">
<svg width="100%" height="100%" viewBox="0 0 1200 1200" version="1.1" xmlns="http://www.w3.org/2000/svg" xmlns:xlink="http://www.w3.org/1999/xlink" xml:space="preserve" xmlns:serif="http://www.serif.com/" style="fill-rule:evenodd;clip-rule:evenodd;stroke-linejoin:round;stroke-miterlimit:2;">
    <rect x="0" y="0" width="1200" height="1200" style="fill:none;"/>
    <g transform="matrix(1.02041,0,0,1.47059,120.408,-370.588)">
        <path d="M960,490C960,396.174 850.219,320 715,320L225,320C89.781,320 -20,396.174 -20,490L-20,830C-20,923.826 89.781,1000 225,1000L715,1000C850.219,1000 960,923.826 960,830L960,490Z" style="fill:rgb(0,204,204);"/>
    </g>
    <g transform="matrix(1,0,0,1,-405.824,158.165)">
        <path d="M619.424,403.275L619.424,333.835L638.624,333.835C650.144,333.835 658.357,336.822 663.264,342.795C668.17,348.768 670.624,357.515 670.624,369.035C670.624,380.768 667.797,389.408 662.144,394.955C656.49,400.502 649.077,403.275 639.904,403.275L619.424,403.275ZM573.344,299.915L573.344,528.395L619.424,528.395L619.424,437.195L644.064,437.195C654.944,437.195 664.864,435.808 673.824,433.035C682.784,430.262 690.41,426.102 696.704,420.555C702.997,415.008 707.904,407.862 711.424,399.115C714.944,390.368 716.704,380.128 716.704,368.395C716.704,359.862 715.637,351.488 713.504,343.275C711.37,335.062 707.85,327.755 702.944,321.355C698.037,314.955 691.584,309.782 683.584,305.835C675.584,301.888 665.717,299.915 653.984,299.915L573.344,299.915Z" style="fill:white;fill-rule:nonzero;"/>
        <path d="M815.264,422.795L770.144,422.795L770.144,416.075C770.144,412.022 770.517,407.968 771.264,403.915C772.01,399.862 773.237,396.182 774.944,392.875C776.65,389.568 778.944,386.902 781.824,384.875C784.704,382.848 788.384,381.835 792.864,381.835C797.344,381.835 801.024,382.742 803.904,384.555C806.784,386.368 809.024,389.035 810.624,392.555C812.224,396.075 813.344,400.342 813.984,405.355C814.624,410.368 815.05,416.182 815.264,422.795ZM770.144,449.035L857.504,449.035L857.504,439.115C857.504,425.888 856.65,413.888 854.944,403.115C853.237,392.342 850.037,383.168 845.344,375.595C840.65,368.022 834.197,362.155 825.984,357.995C817.77,353.835 807.264,351.755 794.464,351.755C779.53,351.755 767.584,354.208 758.624,359.115C749.664,364.022 742.784,370.635 737.984,378.955C733.184,387.275 729.984,396.768 728.384,407.435C726.784,418.102 725.984,429.195 725.984,440.715C725.984,451.595 726.464,462.475 727.424,473.355C728.384,484.235 730.997,494.048 735.264,502.795C739.53,511.542 746.144,518.582 755.104,523.915C764.064,529.248 776.544,531.915 792.544,531.915C813.664,531.915 829.13,526.688 838.944,516.235C848.757,505.782 854.09,490.528 854.944,470.475L815.264,470.475C813.984,481.355 811.637,489.462 808.224,494.795C804.81,500.128 799.37,502.795 791.904,502.795C787.85,502.795 784.437,501.675 781.664,499.435C778.89,497.195 776.65,494.208 774.944,490.475C773.237,486.742 772.01,482.475 771.264,477.675C770.517,472.875 770.144,467.915 770.144,462.795L770.144,449.035Z" style="fill:white;fill-rule:nonzero;"/>
        <path d="M880.544,356.235L880.544,583.755L924.704,583.755L924.704,512.395L925.344,512.395C930.037,519.222 935.317,524.182 941.184,527.275C947.05,530.368 954.144,531.915 962.464,531.915C980.597,531.915 993.93,524.982 1002.46,511.115C1011,497.248 1015.26,474.315 1015.26,442.315C1015.26,410.315 1011,387.222 1002.46,373.035C993.93,358.848 980.597,351.755 962.464,351.755C953.504,351.755 945.984,353.515 939.904,357.035C933.824,360.555 928.33,366.368 923.424,374.475L922.784,374.475L922.784,356.235L880.544,356.235ZM924.704,442.315C924.704,423.542 926.144,409.408 929.024,399.915C931.904,390.422 938.25,385.675 948.064,385.675C957.664,385.675 963.904,390.422 966.784,399.915C969.664,409.408 971.104,423.542 971.104,442.315C971.104,461.088 969.664,475.222 966.784,484.715C963.904,494.208 957.664,498.955 948.064,498.955C938.25,498.955 931.904,494.208 929.024,484.715C926.144,475.222 924.704,461.088 924.704,442.315Z" style="fill:white;fill-rule:nonzero;"/>
        <path d="M1087.9,403.275L1087.9,333.835L1107.1,333.835C1118.62,333.835 1126.84,336.822 1131.74,342.795C1136.65,348.768 1139.1,357.515 1139.1,369.035C1139.1,380.768 1136.28,389.408 1130.62,394.955C1124.97,400.502 1117.56,403.275 1108.38,403.275L1087.9,403.275ZM1041.82,299.915L1041.82,528.395L1087.9,528.395L1087.9,437.195L1112.54,437.195C1123.42,437.195 1133.34,435.808 1142.3,433.035C1151.26,430.262 1158.89,426.102 1165.18,420.555C1171.48,415.008 1176.38,407.862 1179.9,399.115C1183.42,390.368 1185.18,380.128 1185.18,368.395C1185.18,359.862 1184.12,351.488 1181.98,343.275C1179.85,335.062 1176.33,327.755 1171.42,321.355C1166.52,314.955 1160.06,309.782 1152.06,305.835C1144.06,301.888 1134.2,299.915 1122.46,299.915L1041.82,299.915Z" style="fill:white;fill-rule:nonzero;"/>
        <path d="M1206.62,356.235L1206.62,528.395L1250.78,528.395L1250.78,425.035C1250.78,419.275 1251.74,414.422 1253.66,410.475C1255.58,406.528 1258.14,403.328 1261.34,400.875C1264.54,398.422 1268.06,396.662 1271.9,395.595C1275.74,394.528 1279.58,393.995 1283.42,393.995C1285.77,393.995 1288.06,394.048 1290.3,394.155C1292.54,394.262 1294.84,394.422 1297.18,394.635L1297.18,352.395C1295.9,352.182 1294.57,352.022 1293.18,351.915C1291.8,351.808 1290.46,351.755 1289.18,351.755C1280.01,351.755 1272.22,354.262 1265.82,359.275C1259.42,364.288 1253.98,370.955 1249.5,379.275L1248.86,379.275L1248.86,356.235L1206.62,356.235Z" style="fill:white;fill-rule:nonzero;"/>
        <path d="M1396.06,422.795L1350.94,422.795L1350.94,416.075C1350.94,412.022 1351.32,407.968 1352.06,403.915C1352.81,399.862 1354.04,396.182 1355.74,392.875C1357.45,389.568 1359.74,386.902 1362.62,384.875C1365.5,382.848 1369.18,381.835 1373.66,381.835C1378.14,381.835 1381.82,382.742 1384.7,384.555C1387.58,386.368 1389.82,389.035 1391.42,392.555C1393.02,396.075 1394.14,400.342 1394.78,405.355C1395.42,410.368 1395.85,416.182 1396.06,422.795ZM1350.94,449.035L1438.3,449.035L1438.3,439.115C1438.3,425.888 1437.45,413.888 1435.74,403.115C1434.04,392.342 1430.84,383.168 1426.14,375.595C1421.45,368.022 1415,362.155 1406.78,357.995C1398.57,353.835 1388.06,351.755 1375.26,351.755C1360.33,351.755 1348.38,354.208 1339.42,359.115C1330.46,364.022 1323.58,370.635 1318.78,378.955C1313.98,387.275 1310.78,396.768 1309.18,407.435C1307.58,418.102 1306.78,429.195 1306.78,440.715C1306.78,451.595 1307.26,462.475 1308.22,473.355C1309.18,484.235 1311.8,494.048 1316.06,502.795C1320.33,511.542 1326.94,518.582 1335.9,523.915C1344.86,529.248 1357.34,531.915 1373.34,531.915C1394.46,531.915 1409.93,526.688 1419.74,516.235C1429.56,505.782 1434.89,490.528 1435.74,470.475L1396.06,470.475C1394.78,481.355 1392.44,489.462 1389.02,494.795C1385.61,500.128 1380.17,502.795 1372.7,502.795C1368.65,502.795 1365.24,501.675 1362.46,499.435C1359.69,497.195 1357.45,494.208 1355.74,490.475C1354.04,486.742 1352.81,482.475 1352.06,477.675C1351.32,472.875 1350.94,467.915 1350.94,462.795L1350.94,449.035Z" style="fill:white;fill-rule:nonzero;"/>
    </g>
</svg>
