<?xml version="1.0" encoding="UTF-8" standalone="no"?>
<!DOCTYPE svg PUBLIC "-//W3C//DTD SVG 1.1//EN" "http://www.w3.org/Graphics/SVG/1.1/DTD/svg11.dtd">
<svg width="100%" height="100%" viewBox="0 0 569 917" version="1.1" xmlns="http://www.w3.org/2000/svg" xmlns:xlink="http://www.w3.org/1999/xlink" xml:space="preserve" xmlns:serif="http://www.serif.com/" style="fill-rule:evenodd;clip-rule:evenodd;stroke-linecap:round;stroke-linejoin:round;stroke-miterlimit:10;">
    <g transform="matrix(1,0,0,1,-15.4696,-41.1894)">
        <g transform="matrix(1,0,0,1,-4.14524,-16.1376)">
            <g transform="matrix(1,0,0,1,0,-100)">
                <g transform="matrix(1,0,0,1,0,100)">
                    <path d="M424.478,573.292L116.746,532.731C32.398,696.318 8.602,833.509 46.124,944.321C106.996,972.716 138.827,969.173 160,948C185,923 214.502,930.128 225.72,948.947C249,988 302.849,973.081 325.587,948.768C374,897 417.728,907.922 474,924C516,936 552.346,915.968 586.676,886.995C582.012,818.427 528.19,712.8 424.478,573.292Z" style="fill:rgb(0,153,153);fill-rule:nonzero;stroke:black;stroke-width:2px;"/>
                </g>
                <g>
                    <g transform="matrix(-0.171053,2.78954,-2.78954,-0.171053,1278.69,469.707)">
                        <path d="M196.616,387.741L231.788,387.535" style="fill:none;fill-rule:nonzero;stroke:black;stroke-width:0.72px;"/>
                    </g>
                    <g transform="matrix(0.604548,2.72861,-2.72861,0.604548,1112.13,119.418)">
                        <path d="M209.794,381.749L255.386,381.749" style="fill:none;fill-rule:nonzero;stroke:black;stroke-width:0.72px;"/>
                    </g>
                    <g transform="matrix(1.15462,2.54512,-2.54512,1.15462,1052.68,-271.796)">
                        <path d="M302.641,380.155L336.43,380.155" style="fill:none;fill-rule:nonzero;stroke:black;stroke-width:0.72px;"/>
                    </g>
                </g>
            </g>
            <path d="M311.662,735.196C334.075,753.939 351.691,762.365 364.01,760.277C376.33,758.189 383.354,745.587 384.582,722.274L311.662,735.196Z" style="fill:white;fill-rule:nonzero;stroke:black;stroke-width:4px;"/>
            <path d="M118,737C128,762 138.853,773.337 150.558,773.621C162.264,773.906 174.823,763.137 188.235,743.924L118,737Z" style="fill:white;fill-rule:nonzero;stroke:black;stroke-width:4px;"/>
            <path d="M422.468,477.586C453.058,524.685 443,588 380,605L350,525L422.468,477.586Z" style="fill:white;fill-rule:nonzero;stroke:black;stroke-width:4px;"/>
            <path d="M70,299.85C70.118,296.124 54.131,270.391 40,280C15,297 18.883,310 31.668,330L70,299.85Z" style="fill:white;fill-rule:nonzero;stroke:black;stroke-width:4px;"/>
            <path d="M144.5,363.68C106,307 68.617,284.563 40,310C22,326 31,352 86.169,422L144.5,363.68Z" style="fill:white;fill-rule:nonzero;stroke:black;stroke-width:4px;"/>
            <path d="M348.518,397.483C348.518,397.483 403,436 422.468,477.586C410.57,495.684 391.046,512.491 368.658,523.5C388.82,578.381 394.129,644.639 384.582,722.274C363.805,738.594 338.064,744.402 311.662,735.196C307.214,694.1 285.024,658.03 250,628.456C214.186,654.421 191.044,693.946 188.235,743.924C168.676,750.12 143.629,747.658 118,737C83.142,636.944 94.83,558.823 145.084,474.897C121.954,457.431 102.315,439.799 86.169,422C98.202,397.544 120.387,376.015 144.5,363.68C150.276,369.892 156.068,376.334 161.878,383.007L348.518,397.483Z" style="fill:rgb(204,204,204);fill-rule:nonzero;stroke:black;stroke-width:4px;"/>
            <path d="M368.658,523.5C366.032,516.354 363.155,509.4 360.026,502.64C356.896,495.879 353.515,489.312 349.882,482.937L368.658,523.5Z" style="fill:none;fill-rule:nonzero;stroke:black;stroke-width:4px;"/>
            <path d="M386,579L256.62,634.263L242.668,634.107L99,587C99,587 99.267,581.66 101,574C102.77,566.177 107,556 107,556C195.624,589.177 293.219,588.656 380,555C380,555 383,562 384,566C385,570 386,579 386,579Z" style="fill:rgb(255,0,0);fill-rule:nonzero;stroke:black;stroke-width:4px;"/>
            <g transform="matrix(1,0,0,1,0.00014625,-120)">
                <g transform="matrix(1,0,0,1,-0.00014625,120)">
                    <path d="M250,470C259.474,450 278.421,450 287.895,460C297.369,470 297.369,490 287.895,510C281.263,525 264.21,540 250,550C235.789,540 218.737,525 212.105,510C202.631,490 202.631,470 212.105,460C221.579,450 240.526,450 250,470Z" style="fill:rgb(255,0,0);stroke:black;stroke-width:2px;stroke-miterlimit:1.5;"/>
                </g>
                <g transform="matrix(1,0,0,1,-236.892,148.553)">
                    <path d="M487.772,470.987L487.772,457.099L491.612,457.099C493.916,457.099 495.558,457.696 496.54,458.891C497.521,460.085 498.012,461.835 498.012,464.139C498.012,466.485 497.446,468.213 496.316,469.323C495.185,470.432 493.702,470.987 491.868,470.987L487.772,470.987ZM478.556,450.315L478.556,496.011L487.772,496.011L487.772,477.771L492.7,477.771C494.876,477.771 496.86,477.493 498.652,476.939C500.444,476.384 501.969,475.552 503.228,474.443C504.486,473.333 505.468,471.904 506.172,470.155C506.876,468.405 507.228,466.357 507.228,464.011C507.228,462.304 507.014,460.629 506.588,458.987C506.161,457.344 505.457,455.883 504.476,454.603C503.494,453.323 502.204,452.288 500.604,451.499C499.004,450.709 497.03,450.315 494.684,450.315L478.556,450.315Z" style="fill:white;fill-rule:nonzero;stroke:white;stroke-width:4px;stroke-linecap:butt;stroke-miterlimit:2;"/>
                </g>
            </g>
            <g transform="matrix(1,0,0,1,0,-100)">
                <g transform="matrix(1,0,0,1,0,100)">
                    <path d="M137.277,229.336L147,300C121.931,302.988 102.637,280.066 98.517,257.4C96.183,244.559 96.912,225.792 113.472,223.864C121.018,222.985 131.201,226.942 137.277,229.336Z" style="fill:white;fill-rule:nonzero;stroke:black;stroke-width:4px;"/>
                </g>
                <g transform="matrix(1,0,0,1,0,100)">
                    <path d="M386.695,308.723C411.331,314.03 429.227,298.207 437.099,275.864C447.07,247.56 434.032,231.141 404.186,239.781C405.506,228.509 406.908,209.53 401.641,198.666C383.137,160.498 339.825,145.283 301.127,138.101C252.617,129.097 179.233,120.324 152.733,174.868C148.026,184.555 143.822,194.643 141.486,205.156C128.29,264.552 126.203,350.639 173.721,396.641C214.469,436.089 295.068,440.465 339.014,403.955C367.925,379.937 380.762,345.286 386.695,308.723Z" style="fill:white;fill-rule:nonzero;stroke:black;stroke-width:4px;"/>
                </g>
                <g>
                    <g transform="matrix(2.79478,0,0,-2.79478,-438.945,989.844)">
                        <path d="M243.018,188.509L247.632,195.581L254.096,187.955" style="fill:none;fill-rule:nonzero;stroke:black;stroke-width:1.43px;"/>
                    </g>
                    <g transform="matrix(1.07763,0,0,1.10526,-27.3803,-47.4737)">
                        <circle cx="220.5" cy="384.5" r="9.5"/>
                    </g>
                    <g transform="matrix(1.07368,0,0,1.06845,63.0526,-30.5675)">
                        <circle cx="220.5" cy="384.5" r="9.5"/>
                    </g>
                    <g transform="matrix(2.72073,-0.639081,0.639081,2.72073,-519.063,97.3377)">
                        <path d="M255.324,154.589C259.246,158.062 264.32,158.062 270.545,154.589" style="fill:none;fill-rule:nonzero;stroke:black;stroke-width:1.43px;"/>
                    </g>
                    <g transform="matrix(2.75292,0.481885,-0.481885,2.75292,-355.077,-187.907)">
                        <path d="M224.695,152.457C231.195,155.978 236.59,155.978 240.881,152.457" style="fill:none;fill-rule:nonzero;stroke:black;stroke-width:1.43px;"/>
                    </g>
                </g>
                <g transform="matrix(2.79478,0,0,-2.79478,-438.945,824.488)">
                    <path d="M304.476,165.84C304.493,165.887 303.461,160.503 302.485,158.123L302.475,158.099L302.476,158.101C303.403,161.189 305.66,162.959 306.267,163.221" style="fill:none;fill-rule:nonzero;stroke:black;stroke-width:1.43px;"/>
                </g>
                <g transform="matrix(-2.79478,0,0,-2.79478,973.949,807.488)">
                    <path d="M304.476,165.84C304.493,165.887 303.461,160.503 302.485,158.123L302.475,158.099L302.476,158.101C302.919,159.519 304.264,162.62 306.267,163.221" style="fill:none;fill-rule:nonzero;stroke:black;stroke-width:1.43px;"/>
                </g>
                <g transform="matrix(1,0,0,1,0,100)">
                    <path d="M376,190.099C381.744,207.65 380.599,223.576 371.094,236.801C380.799,249.115 382.95,265.218 377.548,285.109C427,216 439.079,123.366 360,80C267,29 140,80 120,150C105.375,201.187 125,211 149,210C179.123,208.745 179.966,200.808 195.292,190.094C217.875,224.113 239.349,224.759 259.715,192.03L251.932,248.175L292.583,199.935C310.747,234.69 339.45,231.735 376,190.099Z" style="fill-rule:nonzero;stroke:black;stroke-width:4px;"/>
                </g>
            </g>
        </g>
    </g>
</svg>
